<?xml version="1.0" encoding="UTF-8"?>
<!DOCTYPE svg PUBLIC "-//W3C//DTD SVG 1.1//EN" "http://www.w3.org/Graphics/SVG/1.1/DTD/svg11.dtd">
<svg xmlns="http://www.w3.org/2000/svg" version="1.1" width="78px" height="78px" style="shape-rendering:geometricPrecision; text-rendering:geometricPrecision; image-rendering:optimizeQuality; fill-rule:evenodd; clip-rule:evenodd" xmlns:xlink="http://www.w3.org/1999/xlink">
<g><path style="opacity:0.762" fill="#d3d3d3" d="M 36.5,11.5 C 38.1439,11.2865 39.6439,11.6198 41,12.5C 41.769,15.0991 41.6023,17.5991 40.5,20C 38.8876,20.7203 37.3876,20.5536 36,19.5C 35.2782,16.7395 35.4448,14.0728 36.5,11.5 Z"/></g>
<g><path style="opacity:0.78" fill="#d3d3d3" d="M 19.5,18.5 C 24.7963,18.6112 26.7963,21.1112 25.5,26C 19.9457,26.2829 17.9457,23.7829 19.5,18.5 Z"/></g>
<g><path style="opacity:0.724" fill="#d3d3d3" d="M 53.5,18.5 C 57.6772,17.8416 59.1772,19.5082 58,23.5C 55.1528,27.3798 52.6528,27.3798 50.5,23.5C 51.0924,21.5775 52.0924,19.9108 53.5,18.5 Z"/></g>
<g><path style="opacity:0.935" fill="#d3d3d3" d="M 35.5,24.5 C 50.1313,25.4364 54.9646,32.7697 50,46.5C 42.3333,54.5 34.6667,54.5 27,46.5C 22.48,36.216 25.3134,28.8827 35.5,24.5 Z"/></g>
<g><path style="opacity:0.769" fill="#d3d3d3" d="M 12.5,35.5 C 14.8568,35.3367 17.1902,35.5034 19.5,36C 20.5536,37.3876 20.7203,38.8876 20,40.5C 17.5991,41.6023 15.0991,41.769 12.5,41C 11.2475,39.1722 11.2475,37.3388 12.5,35.5 Z"/></g>
<g><path style="opacity:0.784" fill="#d3d3d3" d="M 57.5,35.5 C 59.8568,35.3367 62.1902,35.5034 64.5,36C 65.5536,37.3876 65.7203,38.8876 65,40.5C 62.5991,41.6023 60.0991,41.769 57.5,41C 56.2475,39.1722 56.2475,37.3388 57.5,35.5 Z"/></g>
<g><path style="opacity:0.724" fill="#d3d3d3" d="M 21.5,50.5 C 25.6772,49.8416 27.1772,51.5082 26,55.5C 23.1528,59.3798 20.6528,59.3798 18.5,55.5C 19.0924,53.5775 20.0924,51.9108 21.5,50.5 Z"/></g>
<g><path style="opacity:0.737" fill="#d3d3d3" d="M 51.5,50.5 C 56.7963,50.6112 58.7963,53.1112 57.5,58C 51.9457,58.2829 49.9457,55.7829 51.5,50.5 Z"/></g>
<g><path style="opacity:0.803" fill="#d3d3d3" d="M 36.5,56.5 C 38.1439,56.2865 39.6439,56.6198 41,57.5C 41.769,60.0991 41.6023,62.5991 40.5,65C 38.8876,65.7203 37.3876,65.5536 36,64.5C 35.2782,61.7395 35.4448,59.0728 36.5,56.5 Z"/></g>
</svg>
